<?xml version="1.0" encoding="utf-8"?>
<!-- Generator: Adobe Illustrator 18.0.0, SVG Export Plug-In . SVG Version: 6.00 Build 0)  -->
<!DOCTYPE svg PUBLIC "-//W3C//DTD SVG 1.1//EN" "http://www.w3.org/Graphics/SVG/1.1/DTD/svg11.dtd">
<svg version="1.1" id="Layer_1" xmlns="http://www.w3.org/2000/svg" xmlns:xlink="http://www.w3.org/1999/xlink" x="0px" y="0px"
	 viewBox="0 0 755 207.8" enable-background="new 0 0 755 207.8" xml:space="preserve">
<g>
	<path fill="#FFE200" d="M76.1,0H130l76.1,203.5h-55.3L138.2,167h-71l-12.8,36.5H0L76.1,0z M79.5,127.7h46.2l-22.5-71.3h-0.6
		L79.5,127.7z"/>
	<path fill="#FFE200" d="M205.2,0h48.5v71.8h0.6c10-13.7,23.9-20.5,42.2-20.5c41.9,0,62.4,36.5,62.4,75c0,41.6-19.7,81.5-66.1,81.5
		c-17.1,0-31.4-7.4-40.8-21.4h-0.6v17.1h-46.2V0z M251.9,128c0,25.9,7.4,42.8,29.4,42.8c21.7,0,29.1-22.5,29.1-42.8
		c0-18.8-7.4-39.6-28.8-39.6C268.5,88.4,251.9,97.5,251.9,128z"/>
	<path fill="#FFE200" d="M441.2,51.3c45.9,0,78.1,33.9,78.1,78.4c0,44.5-32.2,78.1-78.1,78.1c-45.9,0-77.8-33.6-77.8-78.1
		C363.4,85.2,395.3,51.3,441.2,51.3z M441.2,170.7c22.5,0,29.6-22.2,29.6-41c0-18.8-7.1-41.3-29.6-41.3c-22.5,0-29.4,22.5-29.4,41.3
		C411.8,148.5,418.7,170.7,441.2,170.7z"/>
	<path fill="#FFE200" d="M677.4,203.5h-47v-20.2h-0.6c-9.1,15.1-27.9,24.5-45,24.5c-42.5,0-54.7-24.5-54.7-63.3V55.6h48.5v85.8
		c0,19.7,8.5,26.5,23.9,26.5c10.5,0,26.5-6.8,26.5-33.1V55.6h48.5V203.5z"/>
	<path fill="#FFE200" d="M706.5,10.8v44.7H682v31.4h24.5v65.8c0,7.7,0.4,14.4,1.3,20.2L755,53.9v-43H706.5z"/>
</g>
</svg>
