<?xml version="1.0" encoding="utf-8"?>
<!-- Generator: Adobe Illustrator 18.0.0, SVG Export Plug-In . SVG Version: 6.00 Build 0)  -->
<!DOCTYPE svg PUBLIC "-//W3C//DTD SVG 1.1//EN" "http://www.w3.org/Graphics/SVG/1.1/DTD/svg11.dtd">
<svg version="1.1" id="Layer_1" xmlns="http://www.w3.org/2000/svg" xmlns:xlink="http://www.w3.org/1999/xlink" x="0px" y="0px"
	 viewBox="0 0 432.3 212" enable-background="new 0 0 432.3 212" xml:space="preserve">
<g>
	<path fill="#00FFFC" d="M195.5,207.8h-34.2l-3.1-22.2c-14,19.7-37.9,26.5-56.7,26.5C39.9,212,0,165,0,106C0,47,39.9,0,101.5,0
		c42.2,0,87.2,22.5,92.1,73.5h-53c-1.7-17.4-18.8-27.9-40.2-27.9C66.1,45.6,53,75.8,53,106c0,30.2,13.1,60.4,47.3,60.4
		c26.2,0,43.9-12.3,46.7-30.8H110V96.3h85.5V207.8z"/>
	<path fill="#00FFFC" d="M254.5,145.6c0.9,20.2,12.5,33.6,33.1,33.6c11.7,0,23.1-5.4,27.6-16.2h45.3c-8.8,34.2-40.5,49-73.5,49
		c-48.2,0-80.9-29.1-80.9-78.7c0-45.3,36.2-77.8,79.8-77.8c53,0,79.5,39.9,77.2,90.1H254.5z M314.6,118.6
		c-0.9-16.5-12.5-30.2-28.8-30.2c-17.1,0-28.5,12.3-31.4,30.2H314.6z"/>
	<path fill="#00FFFC" d="M383.9,15.1v44.7h-24.5v31.4h24.5V157c0,7.7,0.4,14.4,1.3,20.2l47.1-119.1v-43H383.9z"/>
</g>
</svg>
