<?xml version="1.0" encoding="utf-8"?>
<!-- Generator: Adobe Illustrator 18.0.0, SVG Export Plug-In . SVG Version: 6.00 Build 0)  -->
<!DOCTYPE svg PUBLIC "-//W3C//DTD SVG 1.1//EN" "http://www.w3.org/Graphics/SVG/1.1/DTD/svg11.dtd">
<svg version="1.1" id="Layer_1" xmlns="http://www.w3.org/2000/svg" xmlns:xlink="http://www.w3.org/1999/xlink" x="0px" y="0px"
	 viewBox="0 183.3 960.2 193.5" enable-background="new 0 183.3 960.2 193.5" xml:space="preserve">
<g>
	<path fill="#FFFFFF" d="M45.1,217.8H0v-34.5h45.1V217.8z M0,234.9h45.1v137.8H0V234.9z"/>
	<path fill="#FFFFFF" d="M63.6,234.9h43.7v18.8h0.7c8.2-14.1,26.8-22.8,43.2-22.8c45.8,0,49.5,33.3,49.5,53.3v88.3h-45.1v-66.4
		c0-18.8,2.1-38-22.5-38c-16.9,0-24.4,14.3-24.4,29.3v75.1H63.6V234.9z"/>
	<path fill="#FFFFFF" d="M370.9,264.3H343V327c0,10.8,6.3,13.4,16.2,13.4c3.8,0,7.7-0.5,11.7-0.5V373c-8.2,0.2-16.4,1.4-24.7,1.4
		c-38.5,0-48.4-11-48.4-48.6v-61.5h-22.8v-29.3h22.8v-41.6H343v41.6h27.9V264.3z"/>
	<path fill="#FFFFFF" d="M443.5,230.9c42.7,0,72.8,31.5,72.8,73c0,41.3-30.1,72.8-72.8,72.8s-72.5-31.2-72.5-72.8
		C371.2,262.6,400.8,230.9,443.5,230.9z M443.5,342.2c20.9,0,27.7-20.7,27.7-38.3s-6.6-38.5-27.7-38.5c-21.1,0-27.2,20.9-27.2,38.5
		C416.3,321.6,422.6,342.2,443.5,342.2z"/>
	<path fill="#FFFFFF" d="M663.5,372.7h-43.7V354h-0.5c-8.5,14.1-26.1,22.8-42,22.8c-39.4,0-50.9-22.8-50.9-58.9v-82.9h45.1v79.8
		c0,18.3,8,24.7,22.3,24.7c9.9,0,24.7-6.3,24.7-30.8v-73.7h45.1V372.7z"/>
	<path fill="#FFFFFF" d="M770.1,285.4c-0.2-11.7-10.6-20-22.1-20c-25.1,0-29.1,21.6-29.1,40.6c0,17.8,7.7,36.2,26.8,36.2
		c15.7,0,23.7-8.9,25.8-23.7h43.7c-4,36.9-32.6,58-69.3,58c-41.3,0-72.1-28.4-72.1-70.7c0-43.7,27.9-75.1,72.1-75.1
		c34.3,0,64.8,18.1,67.9,54.5h-43.7V285.4z"/>
	<path fill="#FFFFFF" d="M912.1,230.9c-16.4,0-35,8.7-42,22.8h-0.5v-70.4h-45.1v189.5h45.1v-75.1c0-15,7.5-29.3,24.4-29.3
		c24.7,0,22.5,19,22.5,38V373h1.4l42.3-106.6C956.5,248.8,945.4,230.9,912.1,230.9z"/>
</g>
</svg>
