<?xml version="1.0" encoding="utf-8"?>
<!-- Generator: Adobe Illustrator 18.0.0, SVG Export Plug-In . SVG Version: 6.00 Build 0)  -->
<!DOCTYPE svg PUBLIC "-//W3C//DTD SVG 1.1//EN" "http://www.w3.org/Graphics/SVG/1.1/DTD/svg11.dtd">
<svg version="1.1" id="Layer_1" xmlns="http://www.w3.org/2000/svg" xmlns:xlink="http://www.w3.org/1999/xlink" x="0px" y="0px"
	 viewBox="0 120.8 960 318.5" enable-background="new 0 120.8 960 318.5" xml:space="preserve">
<g>
	<path fill="#DB0B48" d="M0,120.8h119.7l53.8,208h0.9l53.6-208h119.7v311.9h-76.5V195.9h-0.9l-65.6,236.8h-61.9L77.2,195.9h-0.9
		v236.8H0V120.8z"/>
	<path fill="#DB0B48" d="M442.5,337.5c1.4,31,19.2,51.5,50.7,51.5c17.9,0,35.4-8.3,42.3-24.8h69.4c-13.5,52.4-62.1,75.1-112.6,75.1
		c-73.9,0-124-44.6-124-120.6c0-69.4,55.5-119.2,122.3-119.2c81.2,0,121.8,61.1,118.3,138.1H442.5z M534.6,295.9
		c-1.4-25.3-19.2-46.3-44.1-46.3c-26.2,0-43.7,18.9-48.1,46.3H534.6z"/>
	<path fill="#DB0B48" d="M687.5,337.5c1.4,31,19.2,51.5,50.7,51.5c17.9,0,35.4-8.3,42.3-24.8H850c-13.5,52.4-62.1,75.1-112.6,75.1
		c-73.9,0-124-44.6-124-120.6c0-69.4,55.5-119.2,122.3-119.2c81.2,0,121.8,61.1,118.3,138.1H687.5z M779.6,295.9
		c-1.4-25.3-19.2-46.3-44.1-46.3c-26.2,0-43.7,18.9-48.1,46.3H779.6z"/>
	<path fill="#DB0B48" d="M885.8,137.3v68.5h-37.5v48.1h37.5v100.8c0,11.8,0.6,22.1,2,31L960,203.2v-65.9L885.8,137.3L885.8,137.3z"
		/>
</g>
</svg>
