<?xml version="1.0" encoding="utf-8"?>
<!-- Generator: Adobe Illustrator 18.0.0, SVG Export Plug-In . SVG Version: 6.00 Build 0)  -->
<!DOCTYPE svg PUBLIC "-//W3C//DTD SVG 1.1//EN" "http://www.w3.org/Graphics/SVG/1.1/DTD/svg11.dtd">
<svg version="1.1" id="Layer_1" xmlns="http://www.w3.org/2000/svg" xmlns:xlink="http://www.w3.org/1999/xlink" x="0px" y="0px"
	 viewBox="0 0 222.3 40.6" enable-background="new 0 0 222.3 40.6" xml:space="preserve">
<g>
	<g>
		<polyline fill="none" stroke="#FFFFFF" stroke-width="3" stroke-miterlimit="10" points="50.7,27.3 33.5,27.3 33.5,10 50.7,10 		
			"/>
		<line fill="none" stroke="#FFFFFF" stroke-width="3" stroke-miterlimit="10" x1="50.7" y1="18.8" x2="33.5" y2="18.8"/>
	</g>
	<g>
		<polyline fill="none" stroke="#FFFFFF" stroke-width="3" stroke-miterlimit="10" points="179.8,27.3 162.6,27.3 162.6,10 
			179.8,10 		"/>
		<line fill="none" stroke="#FFFFFF" stroke-width="3" stroke-miterlimit="10" x1="179.8" y1="18.8" x2="162.6" y2="18.8"/>
	</g>
	<circle fill="none" stroke="#FFFFFF" stroke-width="3" stroke-linecap="round" stroke-miterlimit="10" cx="74" cy="18.6" r="8.6"/>
	<g>
		<defs>
			<path id="SVGID_1_" d="M94.9,31.7c0,0,11.8-31.8,12.5-31.7s12.6,7.7,12.6,7.7s-1.3,32.8-1.6,32.9S98.2,35,98.2,35L94.9,31.7z"/>
		</defs>
		<clipPath id="SVGID_2_">
			<use xlink:href="#SVGID_1_"  overflow="visible"/>
		</clipPath>
		<path clip-path="url(#SVGID_2_)" fill="none" stroke="#FFFFFF" stroke-width="3" stroke-miterlimit="10" d="M97.3,18.8h14.5
			c1.5,0,2.7-1.2,2.7-2.7v-3.3c0-1.5-1.2-2.7-2.7-2.7H97.3V18.8z"/>
		<path clip-path="url(#SVGID_2_)" fill="none" stroke="#FFFFFF" stroke-width="3" stroke-miterlimit="10" d="M97.3,27.6h14.5
			c1.5,0,2.7-1.2,2.7-2.7v-3.3c0-1.5-1.2-2.7-2.7-2.7H97.3V27.6z"/>
	</g>
	<path fill="none" stroke="#FFFFFF" stroke-width="3" stroke-miterlimit="10" d="M204.8,9.9c-0.1,0-0.1,0-0.2,0v0h-8.4v17.2h8.4v0
		c0.1,0,0.1,0,0.2,0c4.8,0,8.6-3.9,8.6-8.6C213.4,13.8,209.5,9.9,204.8,9.9z"/>
	<g>
		<path fill="none" stroke="#FFFFFF" stroke-width="3" stroke-miterlimit="10" d="M129.8,18.8h14.5c1.5,0,2.7-1.2,2.7-2.7v-3.3
			c0-1.5-1.2-2.7-2.7-2.7h-14.5V18.8z"/>
		<path fill="none" stroke="#FFFFFF" stroke-width="3" stroke-miterlimit="10" d="M147,29.1v-7.5c0-1.5-1.2-2.7-2.7-2.7h-14.5v10.3"
			/>
	</g>
	<line fill="none" stroke="#DC0947" stroke-width="3" stroke-miterlimit="10" x1="106.9" y1="1.4" x2="93.1" y2="36.3"/>
	<polygon fill="#FFFFFF" points="17.2,8.4 17.2,25.7 4.4,8.4 0,8.4 0,28.8 3,28.8 3,11.5 15.8,28.8 20.2,28.8 20.2,8.4 	"/>
	<g>
		<path fill="#FFFFFF" d="M222.3,5.8c0,2.4-1.9,4.3-4.4,4.3s-4.5-1.9-4.5-4.3c0-2.4,2-4.3,4.5-4.3C220.3,1.5,222.3,3.4,222.3,5.8z
			 M214.5,5.8c0,1.9,1.4,3.5,3.4,3.5c1.9,0,3.3-1.5,3.3-3.4c0-1.9-1.4-3.5-3.3-3.5C215.9,2.4,214.5,4,214.5,5.8z M217.1,8.1h-1V3.8
			c0.4-0.1,0.9-0.1,1.7-0.1c0.8,0,1.2,0.1,1.5,0.3c0.3,0.2,0.4,0.5,0.4,0.9c0,0.5-0.4,0.9-0.9,1V6c0.4,0.1,0.6,0.5,0.8,1.1
			c0.1,0.7,0.2,0.9,0.3,1.1h-1.1c-0.1-0.2-0.2-0.5-0.3-1.1c-0.1-0.4-0.3-0.7-0.9-0.7h-0.5V8.1z M217.2,5.7h0.5c0.6,0,1-0.2,1-0.6
			c0-0.4-0.3-0.7-0.9-0.7c-0.3,0-0.4,0-0.6,0.1V5.7z"/>
	</g>
</g>
</svg>
