<?xml version="1.0" encoding="utf-8"?>
<!-- Generator: Adobe Illustrator 18.0.0, SVG Export Plug-In . SVG Version: 6.00 Build 0)  -->
<!DOCTYPE svg PUBLIC "-//W3C//DTD SVG 1.1//EN" "http://www.w3.org/Graphics/SVG/1.1/DTD/svg11.dtd">
<svg version="1.1" id="Layer_1" xmlns="http://www.w3.org/2000/svg" xmlns:xlink="http://www.w3.org/1999/xlink" x="0px" y="0px"
	 viewBox="0 0 428.9 82.4" enable-background="new 0 0 428.9 82.4" xml:space="preserve">
<g>
	<path fill="#FFFFFF" d="M40.8,34.5H28.9v26.7c0,4.6,2.7,5.7,6.9,5.7c1.6,0,3.3-0.2,5-0.2v14.1c-3.5,0.1-7,0.6-10.5,0.6
		c-16.4,0-20.6-4.7-20.6-20.7V34.5H0V22h9.7V4.3h19.2V22h11.9V34.5z"/>
	<path fill="#FFFFFF" d="M43.7,0h19.2v30.1h0.2c2.9-6,10.8-9.7,17.9-9.7c19.6,0,21.1,14.2,21.1,22.7v37.6H82.9V52.3
		c0-8,0.9-16.2-9.6-16.2c-7.2,0-10.4,6.1-10.4,12.5v32H43.7V0z"/>
	<path fill="#FFFFFF" d="M125.7,56.1c0.3,8,5,13.3,13.1,13.3c4.6,0,9.2-2.1,11-6.4h18c-3.5,13.6-16,19.4-29.2,19.4
		c-19.1,0-32.1-11.5-32.1-31.2c0-18,14.4-30.9,31.6-30.9c21,0,31.5,15.8,30.6,35.7H125.7z M149.5,45.3c-0.3-6.6-5-12-11.4-12
		c-6.8,0-11.3,4.9-12.4,12H149.5z"/>
	<path fill="#FFFFFF" d="M238,34.5h-11.9v26.7c0,4.6,2.7,5.7,6.9,5.7c1.6,0,3.3-0.2,5-0.2v14.1c-3.5,0.1-7,0.6-10.5,0.6
		c-16.4,0-20.6-4.7-20.6-20.7V34.5h-9.7V22h9.7V4.3h19.2V22H238V34.5z"/>
	<path fill="#FFFFFF" d="M257.3,56.1c0.3,8,5,13.3,13.1,13.3c4.6,0,9.2-2.1,11-6.4h18c-3.5,13.6-16,19.4-29.2,19.4
		c-19.1,0-32.1-11.5-32.1-31.2c0-18,14.4-30.9,31.6-30.9c21,0,31.5,15.8,30.6,35.7H257.3z M281.1,45.3c-0.3-6.6-5-12-11.4-12
		c-6.8,0-11.3,4.9-12.4,12H281.1z"/>
	<path fill="#FFFFFF" d="M303.5,40.1c0.3-7.7,4-12.7,9.2-15.7c5.2-2.9,12-4.1,18.6-4.1c13.9,0,27.3,3.1,27.3,19.7v25.7
		c0,5,0,10.4,2.3,15h-19.3c-0.7-1.8-0.9-3.6-1.1-5.5c-5,5.2-12.3,7.2-19.3,7.2c-11.2,0-20-5.7-20-17.7c0-19.1,20.8-17.6,34.1-20.3
		c3.3-0.7,5.1-1.8,5.1-5.4c0-4.4-5.3-6.1-9.3-6.1c-5.3,0-8.7,2.4-9.6,7.3H303.5z M328.4,70.5c9.2,0,12.2-5.2,11.8-17.3
		c-2.7,1.7-7.7,2-11.9,3.2c-4.3,1-7.9,2.8-7.9,7.5C320.4,68.6,324.1,70.5,328.4,70.5z"/>
	<path fill="#FFFFFF" d="M418.4,29.8c-3.2-7.1-9.7-9.5-17.1-9.5c-7.1,0-13.3,3.8-16.8,9.7h-0.2v-8h-18.6v58.7h19.2V52.1
		c0-12,2.9-15.9,9.8-15.9c5.2,0,7.2,4.3,7.2,11.2v33.3h3.6l23.4-59C424.8,23.1,421.4,25.9,418.4,29.8z"/>
</g>
</svg>
