<?xml version="1.0" encoding="utf-8"?>
<!-- Generator: Adobe Illustrator 18.0.0, SVG Export Plug-In . SVG Version: 6.00 Build 0)  -->
<!DOCTYPE svg PUBLIC "-//W3C//DTD SVG 1.1//EN" "http://www.w3.org/Graphics/SVG/1.1/DTD/svg11.dtd">
<svg version="1.1" id="Layer_1" xmlns="http://www.w3.org/2000/svg" xmlns:xlink="http://www.w3.org/1999/xlink" x="0px" y="0px"
	 viewBox="0 148.4 960.3 263.2" enable-background="new 0 148.4 960.3 263.2" xml:space="preserve">
<g>
	<path fill="#FFFFFF" d="M242.2,406.2h-62l-29.7-124.6h-0.6l-29.4,124.6h-62L0,218.7h62l31.3,121.4h0.6l26.8-121.4h58.5l27.5,121.1
		h1l30.7-121.1h62.3L242.2,406.2z"/>
	<path fill="#FFFFFF" d="M355.6,327.6c1,25.6,16,42.5,41.9,42.5c14.7,0,29.4-6.7,35.1-20.4h57.5c-11.2,43.4-51.1,62-93.3,62
		c-61,0-102.5-36.7-102.5-99.7c0-57.5,46-98.7,101-98.7c67.1,0,100.6,50.5,97.8,114H355.6V327.6z M431.9,293.1
		c-1-21.1-16-38.3-36.4-38.3c-21.7,0-36.1,15.7-39.6,38.3H431.9z"/>
	<path fill="#FFFFFF" d="M786.8,406.2h-58.5v-21.7h-0.6c-11.8,17.6-30,27.2-51.8,27.2c-58.8,0-83.7-50.5-83.7-103.2
		c0-48.9,25.9-94.9,78.9-94.9c23,0,40.9,8.6,53.4,25.6h0.6v-90.7h61.3v257.8H786.8z M653.6,310.3c0,25.6,9.3,54.3,37.7,54.3
		c30,0,36.4-28.4,36.4-52.4c0-27.2-9.9-52.1-36.4-52.1C663.2,260.2,653.6,286.7,653.6,310.3z"/>
	<path fill="#FFFFFF" d="M901.2,213.2c-58.5,0-99,43.1-99,99.7c0,52.4,34.8,93,86.6,98.7l18.5-47c-1.9,0.3-3.8,0.3-6.1,0.3
		c-28.8,0-37.4-28.4-37.4-52.1c0-24,8.6-52.7,37.4-52.7c20.1,0,30.7,14.1,35.1,31l24-60.1C944,219.9,923.9,213.2,901.2,213.2z"/>
</g>
</svg>
