<?xml version="1.0" encoding="utf-8"?>
<!-- Generator: Adobe Illustrator 18.0.0, SVG Export Plug-In . SVG Version: 6.00 Build 0)  -->
<!DOCTYPE svg PUBLIC "-//W3C//DTD SVG 1.1//EN" "http://www.w3.org/Graphics/SVG/1.1/DTD/svg11.dtd">
<svg version="1.1" id="Layer_1" xmlns="http://www.w3.org/2000/svg" xmlns:xlink="http://www.w3.org/1999/xlink" x="0px" y="0px"
	 viewBox="0 0 618.7 207.8" enable-background="new 0 0 618.7 207.8" xml:space="preserve">
<g>
	<path fill="#E62378" d="M191.2,203.5h-49l-23.4-98.3h-0.6l-23.1,98.3h-49L0,55.6h49l24.8,95.8h0.6l21.1-95.8h46.2l21.7,95.5h0.6
		l24.2-95.5h49.3L191.2,203.5z"/>
	<path fill="#E62378" d="M239.4,0h48.5v75.8h0.6c7.4-15.1,27.4-24.5,45-24.5c49.3,0,53.3,35.9,53.3,57.3v94.9h-48.5V132
		c0-20.2,2.3-40.8-24.2-40.8c-18.2,0-26.2,15.4-26.2,31.6v80.7h-48.5V0z"/>
	<path fill="#E62378" d="M402.7,101.2c0.9-19.4,10-31.9,23.1-39.6c13.1-7.4,30.2-10.3,47-10.3c35.1,0,69,7.7,69,49.6v64.7
		c0,12.5,0,26.2,5.7,37.9h-48.7c-1.7-4.6-2.3-9.1-2.9-14c-12.5,13.1-31.1,18.2-48.7,18.2c-28.2,0-50.4-14.3-50.4-44.7
		c0-48.2,52.4-44.5,86.1-51.3c8.3-1.7,12.8-4.6,12.8-13.7c0-11.1-13.4-15.4-23.4-15.4c-13.4,0-21.9,6-24.2,18.5H402.7z M465.4,177.8
		c23.1,0,30.8-13.1,29.6-43.6c-6.8,4.3-19.4,5.1-29.9,8c-10.8,2.6-20,7.1-20,18.8C445.2,173,454.6,177.8,465.4,177.8z"/>
	<path fill="#E62378" d="M570.3,10.8v44.7h-24.5v31.4h24.5v65.8c0,7.7,0.4,14.4,1.3,20.2l47.1-119.1v-43H570.3z"/>
</g>
</svg>
